<?xml version="1.0" encoding="utf-8"?>
<svg xmlns="http://www.w3.org/2000/svg" xmlns:xlink="http://www.w3.org/1999/xlink">
    <symbol viewBox="0 0 16 16" id="css">
        <path d="M0.571442 0.428558L1.94975 15.8574L8.13699 17.5714L14.3297 15.8583L15.7101 0.428558H0.571442ZM12.7197 5.47402L12.5472 7.41183L12.0272 13.223L8.14033 14.2976L8.13774 14.2985L4.25342 13.223L3.98236 10.1835H5.88543L6.02645 11.7602L8.1382 12.3301L8.14024 12.3293L10.2545 11.7592L10.5428 9.13324L3.89136 9.15053L3.70344 7.35483L10.703 7.27319L10.8445 5.35033L3.51552 5.37121L3.39174 3.58273H8.14028H12.8892L12.7197 5.47402Z"/>
    </symbol>
    <symbol viewBox="0 0 12 18" id="db">
        <path d="M6.75 15.875C3.02289 15.875 0 14.8665 0 13.625C0 12.946 0 12.2034 0 11.375C0 11.1794 0.0977695 10.9938 0.238395 10.8125C0.990967 11.7815 3.60791 12.5 6.75 12.5C9.89209 12.5 12.509 11.7815 13.2616 10.8125C13.4022 10.9938 13.5 11.1794 13.5 11.375C13.5 12.0265 13.5 12.7175 13.5 13.625C13.5 14.8665 10.4766 15.875 6.75 15.875ZM6.75 11.375C3.02289 11.375 0 10.3665 0 9.125C0 8.4455 0 7.70391 0 6.875C0 6.7558 0.0450352 6.63989 0.105469 6.52509C0.139535 6.45312 0.18457 6.38227 0.238395 6.3125C0.990967 7.28095 3.60791 8 6.75 8C9.89209 8 12.509 7.28095 13.2616 6.3125C13.3154 6.38227 13.3605 6.45312 13.3945 6.52509C13.455 6.63989 13.5 6.7558 13.5 6.875C13.5 7.52648 13.5 8.21698 13.5 9.125C13.5 10.3665 10.4766 11.375 6.75 11.375ZM6.75 6.875C3.02289 6.875 0 5.867 0 4.625C0 4.26959 0 3.89386 0 3.5C0 3.14239 0 2.77105 0 2.375C0 1.133 3.02289 0.125 6.75 0.125C10.4766 0.125 13.5 1.133 13.5 2.375C13.5 2.72602 13.5 3.09845 13.5 3.5C13.5 3.84443 13.5 4.20752 13.5 4.625C13.5 5.867 10.4766 6.875 6.75 6.875ZM6.75 1.25C4.26489 1.25 2.25 1.75263 2.25 2.375C2.25 2.99737 4.26489 3.5 6.75 3.5C9.23511 3.5 11.25 2.99737 11.25 2.375C11.25 1.75263 9.23511 1.25 6.75 1.25Z"/>
    </symbol>
    <symbol viewBox="0 0 15 18" id="drupal">
        <path d="M14.3006 5.436C12.295 2.98378 10.6775 2.7675 9.65403 2.18278C8.92166 1.764 8.24609 1.02712 7.38687 0C7.32922 0.555187 7.26987 1.10869 6.90734 1.51762C6.19494 2.32284 5.22744 2.81728 4.43881 3.20681C2.43266 4.19569 0.125 6.49941 0.125 10.181C0.125 11.9638 0.811531 13.8828 2.10809 15.3613C3.48622 16.9349 5.54947 18.0121 8.00056 18C10.1907 17.989 11.9892 17.2727 13.3404 16.1035C14.9218 14.7361 15.875 12.7274 15.875 10.181C15.875 8.30503 15.3164 6.68025 14.3006 5.436ZM12.0832 16.3654C11.1163 17.174 8.49837 17.6355 7.253 16.6058C7.13037 16.5043 7.12616 16.3516 7.20688 16.263C7.26734 16.1963 7.31994 16.1657 7.3925 16.1238C7.48306 16.0717 7.5995 16.0926 7.67825 16.1643C8.16875 16.6185 10.4879 16.9993 11.8815 16.0611C11.9327 16.0265 11.9991 16.0034 12.0556 16.0284C12.0978 16.0462 12.1237 16.0692 12.1293 16.1176C12.138 16.1952 12.1434 16.3139 12.0832 16.3654ZM8.8235 15.1405C8.82688 15.0241 8.85922 14.9518 8.94219 14.87C9.41891 14.3938 9.92656 14.112 10.4961 14.1258C11.4057 14.1488 11.4447 14.3632 11.7094 14.8956C11.7623 15.0041 11.7313 15.0975 11.6968 15.1523C11.6782 15.1824 11.5736 15.2826 11.5387 15.2826C11.4509 15.2826 11.4189 15.2508 11.3832 15.1616C11.1663 14.6188 10.8448 14.6166 10.4384 14.6166C9.81378 14.616 9.54153 14.9212 9.17225 15.2272C9.08 15.3034 8.99366 15.3605 8.92447 15.3031C8.86906 15.2553 8.82238 15.1898 8.8235 15.1405ZM13.704 14.9437C12.835 14.8762 11.8661 12.8728 10.9101 12.8891C9.65122 12.9105 7.80678 15.0317 5.73566 15.0013C4.67872 14.9853 3.5405 14.5994 3.50591 12.987C3.47722 11.644 4.787 10.2476 6.45088 10.287C8.66178 10.339 9.75106 12.276 10.8569 12.283C11.9409 12.2906 13.2152 10.5958 14.3098 10.5691C14.8929 10.5553 15.3432 11.1184 15.3865 11.9025C15.452 13.079 14.7056 15.0207 13.704 14.9437Z"/>
    </symbol>
    <symbol viewBox="0 0 18 16" id="git">
        <path d="M16.7022 7.74502L9.2639 0.3067C9.0612 0.114364 8.79242 0.00714111 8.51299 0.00714111C8.23355 0.00714111 7.96477 0.114364 7.76207 0.3067L6.34525 1.72352C6.31205 1.75645 6.2857 1.79563 6.26771 1.83879C6.24973 1.88195 6.24047 1.92825 6.24047 1.97501C6.24047 2.02177 6.24973 2.06806 6.26771 2.11123C6.2857 2.15439 6.31205 2.19357 6.34525 2.2265L7.62039 3.54414C7.6695 3.59318 7.73194 3.62671 7.79995 3.64056C7.86796 3.65442 7.93854 3.64798 8.00293 3.62207C8.21893 3.5387 8.45206 3.50954 8.68194 3.53713C8.91181 3.56472 9.13143 3.64823 9.32156 3.78034C9.51169 3.91245 9.66655 4.08915 9.77259 4.29497C9.87862 4.50079 9.9326 4.72945 9.92981 4.96096C9.92799 5.14087 9.89193 5.31878 9.82355 5.48519C9.79763 5.54957 9.7912 5.62015 9.80505 5.68816C9.8189 5.75617 9.85243 5.81861 9.90147 5.86773L11.1483 7.0862C11.1974 7.13524 11.2598 7.16877 11.3278 7.18262C11.3959 7.19647 11.4664 7.19004 11.5308 7.16412C11.8115 7.05236 12.1207 7.03328 12.413 7.10965C12.7053 7.18603 12.9656 7.35387 13.1558 7.58866C13.346 7.82345 13.4561 8.1129 13.4702 8.41473C13.4842 8.71656 13.4013 9.01497 13.2337 9.26638C13.0661 9.51779 12.8225 9.70903 12.5385 9.81218C12.2545 9.91533 11.945 9.92498 11.6551 9.83972C11.3652 9.75446 11.1102 9.57877 10.9272 9.33829C10.7443 9.09781 10.643 8.80514 10.6382 8.50302C10.6404 8.33073 10.674 8.16028 10.7374 8.00005C10.7618 7.93659 10.7675 7.86744 10.7536 7.80086C10.7398 7.73428 10.7071 7.67309 10.6595 7.62459L9.46934 6.42737C9.41983 6.37883 9.35717 6.34589 9.28911 6.33263C9.22106 6.31937 9.15061 6.32637 9.0865 6.35277C9.02239 6.37917 8.96743 6.4238 8.92845 6.48114C8.88946 6.53847 8.86816 6.60599 8.86719 6.67532V10.4157C8.86695 10.4849 8.88694 10.5525 8.92471 10.6105C8.96247 10.6684 9.01636 10.7139 9.07971 10.7416C9.37804 10.8718 9.62244 11.1008 9.77181 11.39C9.92119 11.6792 9.96642 12.011 9.89992 12.3296C9.83342 12.6482 9.65923 12.9343 9.40665 13.1396C9.15406 13.3449 8.83849 13.457 8.51299 13.457C8.18748 13.457 7.87191 13.3449 7.61932 13.1396C7.36674 12.9343 7.19255 12.6482 7.12605 12.3296C7.05955 12.011 7.10478 11.6792 7.25416 11.39C7.40353 11.1008 7.64793 10.8718 7.94626 10.7416C8.00962 10.7139 8.0635 10.6684 8.10126 10.6105C8.13903 10.5525 8.15902 10.4849 8.15878 10.4157V6.57614C8.15902 6.50701 8.13903 6.43932 8.10126 6.38142C8.0635 6.32351 8.00962 6.27792 7.94626 6.25027C7.61115 6.10342 7.34585 5.83264 7.20588 5.4946C7.06591 5.15657 7.06213 4.77749 7.19534 4.43674C7.21717 4.3713 7.21941 4.3009 7.20179 4.23421C7.18417 4.16751 7.14746 4.10741 7.09616 4.06128L5.81394 2.75072C5.78101 2.71752 5.74183 2.69117 5.69867 2.67319C5.65551 2.6552 5.60921 2.64595 5.56245 2.64595C5.51569 2.64595 5.4694 2.6552 5.42623 2.67319C5.38307 2.69117 5.34389 2.71752 5.31097 2.75072L0.352087 7.7096C0.153093 7.90884 0.0413208 8.17892 0.0413208 8.46051C0.0413208 8.74211 0.153093 9.01219 0.352087 9.21143L7.79041 16.6568C7.98965 16.8558 8.25973 16.9676 8.54132 16.9676C8.82292 16.9676 9.093 16.8558 9.29224 16.6568L16.7306 9.21143C16.9295 9.01219 17.0413 8.74211 17.0413 8.46051C17.0413 8.17892 16.9295 7.90884 16.7306 7.7096L16.7022 7.74502Z"/>
    </symbol>
    <symbol viewBox="0 0 16 16" id="html">
        <path d="M0.571442 0.428558L1.94707 15.8575L8.12222 17.5714L14.3021 15.8584L15.6804 0.428558H0.571442ZM12.6959 5.47428H8.12569H5.45433L5.62715 7.41223H8.12569H12.524L12.0051 13.2235L8.12569 14.2982L8.12309 14.2991L4.24631 13.2235L3.97578 10.1839H5.87509L6.01578 11.7606L8.12352 12.3303L8.12613 12.3294L10.236 11.7597L10.4558 9.30547H8.12613H3.89719L3.3861 3.58279H8.12569H12.8648L12.6959 5.47428Z"/>
    </symbol>
    <symbol viewBox="0 0 18 18" id="js">
        <path d="M1.51756 0.428589C0.921255 0.428589 0.428589 0.921255 0.428589 1.51756V16.4825C0.428589 17.0788 0.921255 17.5714 1.51756 17.5714H16.4825C17.0788 17.5714 17.5714 17.0804 17.5714 16.4825V1.51756C17.5714 0.921255 17.0804 0.428589 16.4825 0.428589H1.51756ZM1.51756 1.24492H16.4825C16.6339 1.24492 16.7551 1.36609 16.7551 1.51756V16.4825C16.7551 16.6339 16.6339 16.7551 16.4825 16.7551H1.51756C1.36609 16.7551 1.24492 16.6339 1.24492 16.4825V1.51756C1.24492 1.36609 1.36609 1.24492 1.51756 1.24492ZM8.18369 8.18369V13.316C8.18369 14.1037 7.88554 14.3061 7.36736 14.3061C6.82527 14.3061 6.449 13.9681 6.20027 13.5297L4.91838 14.3061C5.28988 15.0922 6.20027 15.9388 7.46303 15.9388C8.85971 15.9388 9.81634 15.1958 9.81634 13.5647V8.18369H8.18369ZM13.2666 8.18369C11.8763 8.18369 10.985 9.07336 10.985 10.242C10.985 11.5096 11.7328 12.1091 12.8568 12.5874L13.2459 12.7548C13.9554 13.0657 14.3061 13.2554 14.3061 13.7896C14.3061 14.2344 13.9681 14.5565 13.3224 14.5565C12.5539 14.5565 12.1904 14.0351 11.8572 13.4898L10.6327 14.3061C11.0903 15.2102 11.9114 15.9388 13.3575 15.9388C14.8371 15.9388 15.9388 15.1703 15.9388 13.7688C15.9388 12.4678 15.1926 11.889 13.8677 11.3214L13.4787 11.1556C12.8106 10.8655 12.5204 10.6773 12.5204 10.2102C12.5204 9.83229 12.8106 9.54211 13.2666 9.54211C13.7146 9.54211 14.0016 9.73184 14.2679 10.2102L15.4812 9.4321C14.9694 8.52808 14.2567 8.18369 13.2666 8.18369Z"/>
    </symbol>
    <symbol viewBox="0 0 16 18" id="linux">
        <path fill-rule="evenodd" clip-rule="evenodd" d="M8.23932 4.26354C8.63331 4.44158 9.04053 4.62829 9.12667 4.66272C9.28984 4.72793 9.2335 5.18612 9.08219 5.40817C8.93089 5.63022 7.8122 6.29366 7.45311 6.40638C7.09401 6.5191 6.81444 6.48393 6.53879 6.37428C6.26314 6.26462 5.55601 5.57023 5.45314 5.40817C5.35027 5.24611 5.35167 4.96732 5.45314 4.8332C5.55461 4.69907 6.5608 3.96365 6.71431 3.90084C6.86782 3.83802 7.25781 3.85763 7.45311 3.92179C7.53151 3.94754 7.79038 4.06152 8.08274 4.19295C7.94396 4.09259 7.85076 3.90657 7.85076 3.69368C7.85076 3.37434 8.06048 3.11546 8.31918 3.11546C8.57788 3.11546 8.7876 3.37434 8.7876 3.69368C8.7876 4.01303 8.57788 4.27191 8.31918 4.27191C8.29195 4.27191 8.26527 4.26904 8.23932 4.26354ZM5.54396 5.72526C5.45036 5.58292 5.38035 5.47225 5.35241 5.42848C5.24341 5.25771 5.24489 4.96395 5.35241 4.82262C5.38816 4.77562 5.52991 4.65857 5.70918 4.52081C5.50731 4.33697 5.37088 3.98613 5.37088 3.58354C5.37088 2.99047 5.66696 2.50969 6.03218 2.50969C6.39741 2.50969 6.69348 2.99047 6.69348 3.58354C6.69348 3.67449 6.68652 3.7628 6.67342 3.84713C6.67915 3.84431 6.68425 3.84198 6.68868 3.84017C6.8429 3.77742 7.22238 3.79273 7.43769 3.85212C7.41955 3.76628 7.40989 3.67628 7.40989 3.58354C7.40989 2.99047 7.80466 2.50969 8.29162 2.50969C8.77859 2.50969 9.17336 2.99047 9.17336 3.58354C9.17336 3.93984 9.03088 4.25561 8.81153 4.45095C9.02431 4.54689 9.19175 4.62194 9.2447 4.64298C9.41759 4.71169 9.35788 5.1945 9.19757 5.42848C9.18134 5.45216 9.15461 5.48529 9.11928 5.52584C9.19498 5.69495 9.63308 6.67954 10.0338 7.70683C10.4742 8.83586 10.888 9.31446 10.9868 10.1794C11.1112 11.2693 11.1197 12.024 11.0832 12.532C11.4584 12.7681 11.1485 13.5554 11.889 13.5776C12.7293 13.6029 13.1679 12.5726 13.6678 12.5901C13.7785 12.287 13.9134 11.7643 13.8348 11.151C13.7099 10.177 12.915 8.74973 12.915 8.74973C12.915 8.74973 11.292 6.35574 10.95 5.69107C10.608 5.02641 10.6101 4.61633 10.5298 4.11472C10.4495 3.6131 10.5298 3.63442 10.5298 3.06668C10.5298 2.49894 10.3463 2.06607 10.3463 2.06607C10.3463 2.06607 9.72385 -0.0659228 7.48986 0.00156927C5.25588 0.0690614 5.07678 2.06607 5.07678 2.06607C5.07678 2.06607 5.08036 5.86258 5.08036 6.1935C5.08036 6.52442 4.96761 6.48045 4.7182 6.86377C4.46878 7.24709 3.83621 7.96809 3.46567 8.67326C3.21026 9.15931 3.0728 9.57464 2.79538 10.281C2.51795 10.9873 2.13004 11.4284 2.13004 11.8418C2.13004 12.0478 2.1844 12.1953 2.23895 12.3002C2.38929 12.1133 2.56672 11.9816 2.8422 11.9816C3.25928 11.9816 4.26386 13.5576 5.08036 14.8465C5.13557 14.9336 5.19026 15.0188 5.24401 15.1015C5.37025 15.1254 5.79951 15.1691 5.79951 14.6586C5.79951 14.06 3.5222 12.4687 3.5222 12.4687C3.5222 12.4687 3.40461 11.3641 3.66896 10.5506C3.93331 9.73713 4.43071 8.96137 4.43071 8.96137C4.43071 8.96137 4.61145 8.18011 4.91834 7.51973C5.22523 6.85936 5.51412 6.68815 5.51412 6.68815L5.54396 5.72526ZM5.9275 16.1167C6.0463 16.2904 6.12521 16.4082 6.14447 16.4523C6.25124 16.697 6.18526 17.0396 6.04919 17.2793C6.59702 17.1692 7.2771 17.0692 7.93906 17.0692C8.54766 17.0692 9.24894 17.1537 9.86203 17.2529C9.79091 16.7459 9.84431 16.0788 9.92917 15.3476C9.94381 15.2214 9.95676 15.1055 9.96824 14.9985C9.58129 15.4178 9.06817 15.7925 8.40079 15.9764C6.88029 16.3954 6.12767 16.1917 5.9275 16.1167ZM4.76776 17.9751C4.30946 18.0526 4.21786 17.8857 2.807 17.4665C2.1065 17.2583 1.19147 17.1601 0.769394 17.0219C0.347319 16.8838 0.0890973 16.7552 0.00934088 16.5508C-0.0301586 16.4496 0.0670159 16.1175 0.0890972 15.4071C0.111179 14.6967 0.000695976 14.1543 0.0890973 13.9849C0.332726 13.5182 0.981055 13.7843 1.52751 13.3558C2.07397 12.9273 2.14743 12.1497 2.807 12.1497C3.20698 12.1497 4.17037 13.6429 4.95337 14.8641C5.46159 15.6567 5.92422 16.2732 5.97385 16.3856C6.09994 16.6711 5.97482 17.0972 5.78231 17.3088C5.58981 17.5203 5.19447 17.903 4.76776 17.9751ZM5.55919 5.30836C5.54291 5.32887 6.20113 5.82338 6.87685 5.73869C7.64085 5.64294 8.82465 4.83803 8.75205 4.75596C8.70063 4.69782 7.56297 5.59447 6.84365 5.64294C6.12432 5.69141 5.57547 5.28784 5.55919 5.30836ZM10.0863 15.314C10.246 13.8645 10.1745 13.8803 10.2201 12.9943C10.2201 12.9943 10.1817 12.5141 10.8445 12.5514C11.5072 12.5888 10.8438 13.6161 11.8079 13.6984C12.772 13.7808 13.0339 12.73 13.4991 12.7855C13.9642 12.841 13.5848 13.2823 13.8272 13.9005C14.036 14.4332 15.1994 14.816 15.0796 15.3266C14.9599 15.8371 14.5671 15.7606 13.3474 16.6917C12.1277 17.6227 12.457 18.0185 10.8355 17.9689C9.89785 17.9403 9.92665 16.7635 10.0863 15.314ZM6.03218 4.27191C6.24523 4.27191 6.41794 4.02536 6.41794 3.72122C6.41794 3.41708 6.24523 3.17053 6.03218 3.17053C5.81914 3.17053 5.64643 3.41708 5.64643 3.72122C5.64643 4.02536 5.81914 4.27191 6.03218 4.27191ZM6.19008 3.87623C6.29294 3.87623 6.27127 3.6493 6.19008 3.50098C6.1089 3.35266 5.97169 3.29252 5.93401 3.3645C5.89393 3.44107 6.01285 3.64651 6.01285 3.64651C6.01285 3.64651 6.08723 3.87623 6.19008 3.87623ZM8.5328 3.65031C8.58834 3.63232 8.60778 3.54699 8.5328 3.41129C8.45783 3.27559 8.34642 3.24533 8.30367 3.30944C8.26511 3.36724 8.37484 3.5031 8.37484 3.5031C8.37484 3.5031 8.47727 3.6683 8.5328 3.65031Z"/>
    </symbol>
    <symbol viewBox="0 0 18 8" id="php">
        <path d="M3.86048 2.73944C4.39561 2.73944 4.75226 2.83821 4.93058 3.03578C5.10873 3.23334 5.15118 3.57247 5.05796 4.05301C4.96058 4.55345 4.77306 4.91063 4.49509 5.12464C4.21712 5.33868 3.79411 5.44557 3.22623 5.44557H2.36946L2.89539 2.73944H3.86048ZM0.428574 8.18505H1.83713L2.17121 6.46599H3.3777C3.91006 6.46599 4.34799 6.41018 4.69178 6.29822C5.03561 6.18643 5.34804 5.99894 5.62929 5.73572C5.86532 5.51873 6.05629 5.27942 6.20255 5.01772C6.34864 4.75623 6.45245 4.4675 6.5138 4.15178C6.66284 3.38532 6.55037 2.78832 6.17674 2.3606C5.80312 1.93289 5.20872 1.71906 4.39389 1.71906H1.68529L0.428574 8.18505Z"/>
        <path d="M7.5483 0H8.94572L8.61161 1.71906H9.85655C10.6398 1.71906 11.1802 1.85578 11.4776 2.12891C11.7749 2.40222 11.864 2.84498 11.7451 3.45707L11.1604 6.46599H9.7408L10.2967 3.60505C10.36 3.27959 10.3368 3.0576 10.2269 2.93925C10.1171 2.82086 9.88331 2.76164 9.52578 2.76164H8.4089L7.68901 6.46596H6.29155L7.5483 0Z"/>
        <path d="M14.8544 2.73944C15.3895 2.73944 15.7462 2.83821 15.9245 3.03578C16.1027 3.23334 16.1451 3.57247 16.0519 4.05301C15.9545 4.55345 15.767 4.91063 15.489 5.12464C15.211 5.33868 14.788 5.44557 14.2201 5.44557H13.3634L13.8893 2.73944H14.8544ZM11.4225 8.18505H12.8311L13.1651 6.46599H14.3716C14.904 6.46599 15.3419 6.41018 15.6857 6.29822C16.0295 6.18643 16.342 5.99894 16.6232 5.73572C16.8593 5.51873 17.0502 5.27942 17.1965 5.01772C17.3425 4.75623 17.4464 4.4675 17.5077 4.15178C17.6567 3.38532 17.5443 2.78832 17.1707 2.3606C16.797 1.93289 16.2026 1.71906 15.3878 1.71906H12.6793L11.4225 8.18505Z"/>
    </symbol>
    <symbol viewBox="0 0 18 18" id="windows">
        <path d="M0.195435 13.7199L6.49336 14.6321V8.60658H0.195435V13.7199ZM0.195435 7.74584H6.49336V1.7197L0.195435 2.63187V7.74584ZM7.3541 14.7569L15.8047 15.9808V8.60658H7.3541V14.7569ZM7.3541 1.5946V7.74584H15.8047V0.371277L7.3541 1.5946Z"/>
    </symbol>
    <symbol viewBox="0 0 13 18" id="figma">
        <path d="M3.16675 18C4.82275 18 6.16675 16.656 6.16675 15V12H3.16675C1.51075 12 0.166748 13.344 0.166748 15C0.166748 16.656 1.51075 18 3.16675 18Z"/>
        <path d="M0.166748 9C0.166748 7.344 1.51075 6 3.16675 6H6.16675V12H3.16675C1.51075 12 0.166748 10.656 0.166748 9Z"/>
        <path d="M0.166748 3C0.166748 1.344 1.51075 0 3.16675 0H6.16675V6H3.16675C1.51075 6 0.166748 4.656 0.166748 3Z"/>
        <path d="M6.16675 0H9.16675C10.8227 0 12.1667 1.344 12.1667 3C12.1667 4.656 10.8227 6 9.16675 6H6.16675V0Z"/>
        <path d="M12.1667 9C12.1667 10.656 10.8227 12 9.16675 12C7.51075 12 6.16675 10.656 6.16675 9C6.16675 7.344 7.51075 6 9.16675 6C10.8227 6 12.1667 7.344 12.1667 9Z"/>
    </symbol>
    <symbol viewBox="0 0 16 16" id="github">
        <path fill-rule="evenodd" clip-rule="evenodd" d="M8 0.125C3.65117 0.125 0.125 3.73906 0.125 8.20039C0.125 11.7688 2.38203 14.7922 5.51094 15.8609C5.90469 15.9348 6.04883 15.6852 6.04883 15.4707C6.04883 15.2773 6.0418 14.7711 6.03828 14.0961C3.84805 14.5848 3.38398 13.0133 3.38398 13.0133C3.02539 12.0816 2.50859 11.832 2.50859 11.832C1.79492 11.3293 2.56133 11.3398 2.56133 11.3398C3.35234 11.3961 3.76719 12.173 3.76719 12.173C4.47031 13.407 5.60938 13.052 6.05938 12.8445C6.12969 12.3242 6.33359 11.9656 6.55859 11.7652C4.81133 11.5613 2.97266 10.8688 2.97266 7.775C2.97266 6.89258 3.27852 6.17188 3.78125 5.60938C3.70039 5.40547 3.42969 4.58281 3.85859 3.47187C3.85859 3.47187 4.51953 3.25391 6.02422 4.29805C6.65352 4.11875 7.325 4.03086 7.99648 4.02734C8.66445 4.03086 9.33945 4.11875 9.96875 4.29805C11.4734 3.25391 12.1309 3.47187 12.1309 3.47187C12.5598 4.58281 12.2891 5.40547 12.2082 5.60938C12.7109 6.17539 13.0168 6.89609 13.0168 7.775C13.0168 10.8758 11.1746 11.5578 9.42031 11.7582C9.70156 12.0078 9.95469 12.5 9.95469 13.2523C9.95469 14.3316 9.94414 15.2035 9.94414 15.4672C9.94414 15.6816 10.0848 15.9348 10.4855 15.8539C13.6215 14.7887 15.875 11.7652 15.875 8.20039C15.875 3.73906 12.3488 0.125 8 0.125Z"/>
    </symbol>
    <symbol viewBox="0 0 14 14" id="linkedin">
        <path d="M12.6672 0.25H1.40313C0.787891 0.25 0.25 0.692969 0.25 1.30117V12.5898C0.25 13.2016 0.787891 13.7465 1.40313 13.7465H12.6637C13.2824 13.7465 13.7465 13.198 13.7465 12.5898V1.30117C13.75 0.692969 13.2824 0.25 12.6672 0.25ZM4.43359 11.5H2.5V5.48828H4.43359V11.5ZM3.53359 4.57422H3.51953C2.90078 4.57422 2.5 4.11367 2.5 3.53711C2.5 2.95 2.91133 2.5 3.54414 2.5C4.17695 2.5 4.56367 2.94648 4.57773 3.53711C4.57773 4.11367 4.17695 4.57422 3.53359 4.57422ZM11.5 11.5H9.56641V8.21289C9.56641 7.42539 9.28516 6.8875 8.58555 6.8875C8.05117 6.8875 7.73477 7.24961 7.59414 7.60117C7.54141 7.72773 7.52734 7.9 7.52734 8.07578V11.5H5.59375V5.48828H7.52734V6.325C7.80859 5.92422 8.24805 5.34766 9.27109 5.34766C10.5402 5.34766 11.5 6.18438 11.5 7.98789V11.5V11.5Z"/>
    </symbol>
    <symbol viewBox="0 0 16 12" id="mail">
        <path d="M15.193 2.17848L11.4102 6.03161C11.382 6.05974 11.382 6.10193 11.4102 6.13005L14.0574 8.94959C14.2367 9.12888 14.2367 9.41717 14.0574 9.59646C13.9695 9.68435 13.85 9.73006 13.734 9.73006C13.618 9.73006 13.4984 9.68435 13.4105 9.59646L10.7738 6.78747C10.7457 6.75935 10.7 6.75935 10.6719 6.78747L10.0285 7.44138C9.49063 7.9863 8.77695 8.28865 8.01055 8.29216C7.23359 8.29568 6.49531 7.96873 5.95039 7.41677L5.33164 6.78747C5.30352 6.75935 5.25781 6.75935 5.22969 6.78747L2.59297 9.59646C2.50508 9.68435 2.38555 9.73006 2.26953 9.73006C2.15352 9.73006 2.03398 9.68435 1.94609 9.59646C1.7668 9.41717 1.7668 9.12888 1.94609 8.94959L4.59336 6.13005C4.61797 6.10193 4.61797 6.05974 4.59336 6.03161L0.807031 2.17848C0.761328 2.13278 0.6875 2.16442 0.6875 2.2277V9.93748C0.6875 10.5562 1.19375 11.0625 1.8125 11.0625H14.1875C14.8063 11.0625 15.3125 10.5562 15.3125 9.93748V2.2277C15.3125 2.16442 15.2352 2.13629 15.193 2.17848Z"/>
        <path d="M7.9999 7.37461C8.52021 7.37461 9.00889 7.1707 9.37451 6.79805L14.8905 1.18359C14.6972 1.02891 14.4581 0.9375 14.1944 0.9375H1.80889C1.54521 0.9375 1.30264 1.02891 1.11279 1.18359L6.62881 6.79805C6.99092 7.16719 7.47959 7.37461 7.9999 7.37461Z"/>
    </symbol>
    <symbol viewBox="0 0 18 18" id="pi">
        <path d="M3.7823 0.000198565C3.69204 0.00301596 3.59603 0.0360786 3.4858 0.123793C3.21577 0.0187673 2.95293 -0.0183127 2.71881 0.195512C2.35729 0.148216 2.24053 0.246313 2.15152 0.360308C2.07216 0.358586 1.55694 0.278442 1.32099 0.633444C0.728067 0.56267 0.541372 0.985555 0.753702 1.3796C0.632606 1.5687 0.506808 1.75459 0.790009 2.11507C0.68982 2.31585 0.752192 2.53357 0.988182 2.79714C0.925893 3.07939 1.04846 3.27825 1.26805 3.43344C1.22698 3.81968 1.61839 4.04468 1.7355 4.12467C1.78047 4.34973 1.87448 4.56266 2.32246 4.68009C2.39635 5.01545 2.66534 5.07356 2.92606 5.14396C2.06433 5.64921 1.32505 6.31292 1.33007 7.94395L1.20451 8.17132C0.216413 8.77741 -0.672754 10.7261 0.717396 12.3095C0.808196 12.8051 0.959996 13.1606 1.09559 13.5546C1.29839 15.1423 2.62236 15.8868 2.97145 15.9747C3.483 16.3677 4.02834 16.7404 4.76561 17.0016C5.46062 17.7246 6.21266 18 7 18C7.78734 18 8.53939 17.7246 9.23439 17.0016C9.97167 16.7404 10.517 16.3677 11.0286 15.9747C11.3776 15.8868 12.7016 15.1423 12.9044 13.5546C13.04 13.1606 13.1918 12.8051 13.2826 12.3095C14.6728 10.7261 13.7836 8.77741 12.7955 8.17132L12.6699 7.94395C12.6749 6.31292 11.9357 5.64921 11.0739 5.14396C11.3347 5.07356 11.6037 5.01545 11.6775 4.68009C12.1255 4.56266 12.2195 4.34973 12.2645 4.12467C12.3816 4.04468 12.773 3.81968 12.732 3.43344C12.9515 3.27825 13.0741 3.07939 13.0118 2.79714C13.2478 2.53357 13.3102 2.31585 13.21 2.11507C13.4932 1.75459 13.3674 1.5687 13.2463 1.3796C13.4586 0.985555 13.2719 0.56267 12.679 0.633444C12.4431 0.278442 11.9278 0.358597 11.8485 0.360308C11.7595 0.246313 11.6427 0.148216 11.2812 0.195512C11.0471 -0.0183127 10.7842 0.0187673 10.5142 0.123793C10.404 0.0360786 10.3079 0.00303161 10.2177 0.000198565C10.0455 -0.005191 9.89873 0.100498 9.73966 0.151263C9.35121 0.0233064 9.26322 0.197385 9.07252 0.268753C8.64916 0.178498 8.52084 0.375736 8.31764 0.583091L8.08013 0.578499C7.44169 0.957986 7.12614 1.72986 7 1.72986C6.87387 1.72986 6.55831 0.957986 5.91987 0.578499L5.68237 0.583091C5.47916 0.375736 5.35084 0.178498 4.92748 0.268753C4.73678 0.197385 4.64879 0.0233064 4.26034 0.151263C4.10127 0.100498 3.95454 -0.005191 3.7823 0.000198565V0.000198565ZM3.80499 0.456439C4.12926 0.577623 4.29781 0.733873 4.47365 0.888266C4.53331 0.80711 4.62388 0.746875 4.51297 0.55104C4.74325 0.684898 4.91715 0.842766 5.04548 1.01949C5.18789 0.928002 5.12945 0.803677 5.1302 0.688378C5.36951 0.884703 5.52221 1.09315 5.70808 1.2972C5.74553 1.26966 5.77747 1.17615 5.80641 1.02865C6.37728 1.58725 7.18374 2.99461 6.01366 3.55246C5.01842 2.72454 3.83011 2.12265 2.51307 1.67105C4.20626 2.55166 5.19136 3.26308 5.73078 3.86984C5.45443 4.98692 4.0129 5.03949 3.4858 5.00815C3.59375 4.95748 3.68385 4.8954 3.71574 4.80216C3.58348 4.70731 3.11432 4.79236 2.78688 4.60685C2.91266 4.58056 2.97166 4.55554 3.03044 4.46189C2.72116 4.36238 2.38831 4.27578 2.19236 4.11093C2.29811 4.11223 2.39615 4.13577 2.53425 4.03922C2.2572 3.88857 1.96216 3.76888 1.73247 3.53873C1.87572 3.53518 2.02946 3.53695 2.07437 3.4838C1.82078 3.32534 1.60702 3.14859 1.42992 2.95583C1.63038 2.98024 1.71426 2.96058 1.76273 2.92531C1.57106 2.72729 1.32925 2.56047 1.21359 2.31649C1.36243 2.3682 1.49815 2.38652 1.59633 2.31039C1.53118 2.16218 1.25172 2.07539 1.09105 1.72902C1.24774 1.74435 1.41483 1.76351 1.44807 1.72902C1.37534 1.43015 1.25127 1.26229 1.12887 1.08815C1.46422 1.08314 1.97182 1.0893 1.9488 1.06069L1.74155 0.84707C2.06911 0.758108 2.4044 0.861965 2.64771 0.938619C2.75697 0.851656 2.64487 0.741131 2.51156 0.628863C2.78994 0.66635 3.04211 0.730628 3.26946 0.819595C3.39095 0.708966 3.18939 0.599124 3.09247 0.488479C3.52254 0.570809 3.70564 0.685503 3.88668 0.801287C4.01811 0.674265 3.89365 0.567047 3.80499 0.456439V0.456439ZM10.195 0.456439C10.1064 0.567047 9.9819 0.674265 10.1133 0.801287C10.2944 0.685503 10.4775 0.570809 10.9075 0.488479C10.8106 0.599124 10.6091 0.708966 10.7305 0.819595C10.9579 0.730628 11.2101 0.66635 11.4884 0.628863C11.3551 0.741131 11.243 0.851656 11.3523 0.938619C11.5956 0.861965 11.9309 0.758108 12.2585 0.84707L12.0512 1.06069C12.0282 1.08927 12.5358 1.08317 12.8711 1.08815C12.7487 1.26229 12.6247 1.43015 12.5519 1.72902C12.5852 1.76351 12.7523 1.74435 12.909 1.72902C12.7483 2.07539 12.4688 2.16218 12.4037 2.31039C12.5018 2.38652 12.6376 2.3682 12.7864 2.31649C12.6707 2.56047 12.429 2.72729 12.2373 2.92531C12.2857 2.96058 12.3696 2.98024 12.5701 2.95583C12.393 3.14859 12.1792 3.32534 11.9256 3.4838C11.9705 3.53692 12.1243 3.53516 12.2675 3.53873C12.0378 3.76888 11.7428 3.88857 11.4658 4.03922C11.6039 4.13577 11.7019 4.11225 11.8076 4.11093C11.6117 4.27578 11.2788 4.36238 10.9696 4.46189C11.0283 4.55554 11.0874 4.58056 11.2131 4.60685C10.8857 4.79236 10.4165 4.70731 10.2843 4.80216C10.3162 4.8954 10.4063 4.95748 10.5142 5.00815C9.98711 5.03949 8.54558 4.98692 8.26923 3.86984C8.80864 3.26308 9.79374 2.55166 11.4869 1.67105C10.1699 2.12265 8.98158 2.72454 7.98634 3.55246C6.81625 2.99461 7.62271 1.58725 8.19359 1.02865C8.22253 1.17615 8.25447 1.26966 8.29192 1.2972C8.4778 1.09315 8.6305 0.884703 8.86981 0.688378C8.87053 0.803677 8.81211 0.928002 8.95452 1.01949C9.08286 0.842766 9.25675 0.684898 9.48703 0.55104C9.37612 0.746875 9.46668 0.80711 9.52636 0.888266C9.70219 0.733873 9.87074 0.577623 10.195 0.456439V0.456439ZM7 5.07755C8.0102 5.07755 8.8526 5.76991 8.85468 6.17698C8.85732 6.68764 8.11532 7.21204 7.01362 7.22527C7.00901 7.22529 7.0046 7.22525 7 7.22527C6.9954 7.22525 6.99097 7.22529 6.98639 7.22527C5.88467 7.21204 5.14272 6.68764 5.14532 6.17698C5.14744 5.76991 5.9898 5.07755 7 5.07755V5.07755ZM4.16504 5.41252C4.18573 5.412 4.20626 5.412 4.22706 5.41252C4.39073 5.41335 4.55944 5.42758 4.73082 5.45677C5.308 5.55459 1.96403 8.50014 1.9125 7.84325C1.86637 6.3411 2.8629 5.43351 4.16504 5.41252V5.41252ZM9.77294 5.41252C9.79374 5.412 9.81427 5.412 9.83496 5.41252C11.1371 5.43351 12.1336 6.3411 12.0875 7.84325C12.036 8.50014 8.692 5.55459 9.26918 5.45677C9.44055 5.42758 9.60927 5.41339 9.77294 5.41252V5.41252ZM4.69754 7.28783C4.89016 7.28637 5.08532 7.31501 5.27542 7.37938C6.2893 7.72266 6.80169 8.91867 6.42061 10.0497C6.03951 11.1807 4.90813 11.8197 3.89425 11.4764C2.88037 11.1331 2.36798 9.93708 2.74907 8.80608C3.05871 7.88714 3.86288 7.29409 4.69754 7.28783V7.28783ZM9.30246 7.28783C10.1371 7.29409 10.9413 7.88714 11.2509 8.80608C11.632 9.93708 11.1196 11.1331 10.1058 11.4764C9.09188 11.8197 7.96049 11.1807 7.5794 10.0497C7.19831 8.91867 7.71071 7.72266 8.72458 7.37938C8.91468 7.31501 9.10985 7.28641 9.30246 7.28783V7.28783ZM1.73247 8.54973C2.52251 8.56144 1.93533 12.3388 1.21964 12.0181C0.407143 11.3589 0.145941 9.42957 1.6523 8.56194C1.67357 8.55619 1.69317 8.55245 1.71281 8.55126C1.71921 8.55074 1.72625 8.54964 1.73247 8.54975V8.54973ZM12.2675 8.54973C12.2738 8.54973 12.2808 8.55078 12.2872 8.55125C12.3068 8.55239 12.3264 8.5562 12.3477 8.56194C13.8541 9.42956 13.5928 11.3589 12.7804 12.0181C12.0647 12.3388 11.4775 8.56143 12.2675 8.54973V8.54973ZM7 11.1617C7.53248 11.1617 8.03133 11.3564 8.39328 11.687C8.77936 12.0396 9.00437 12.5417 9.00142 13.045C9.00142 13.5391 8.78256 14.0292 8.40689 14.3786C8.03773 14.722 7.52191 14.9256 7 14.9325C6.47808 14.9256 5.96228 14.722 5.59311 14.3786C5.21744 14.0292 4.99858 13.5391 4.99858 13.045C4.99564 12.5417 5.22063 12.0396 5.60672 11.687C5.96867 11.3564 6.46751 11.1617 7 11.1617V11.1617ZM2.34062 12.1493C2.86368 12.1384 3.50697 12.555 4.02737 13.164C4.60778 13.8693 4.87178 15.1089 4.38742 15.4742C3.92914 15.7531 2.81541 15.6377 2.02444 14.4915C1.49099 13.5298 1.56064 12.5512 1.93519 12.2637C2.05771 12.1885 2.19416 12.1523 2.34062 12.1493V12.1493ZM11.6095 12.1493C11.626 12.1488 11.643 12.1488 11.6594 12.1493C11.8058 12.1523 11.9423 12.1885 12.0648 12.2637C12.4394 12.5512 12.509 13.5298 11.9756 14.4915C11.1846 15.6377 10.0709 15.7531 9.61258 15.4742C9.12823 15.1089 9.3922 13.8693 9.97263 13.164C10.4768 12.574 11.0957 12.1644 11.6095 12.1493V12.1493ZM7 15.5276C7.8104 15.5183 9.01474 15.8624 8.99991 16.3012C9.01285 16.6051 8.02463 17.4819 7.01664 17.438C7.01106 17.438 7.00558 17.438 7 17.438C6.99442 17.438 6.98894 17.438 6.98337 17.438C5.97536 17.4819 4.98716 16.6051 5.00009 16.3012C4.98526 15.8624 6.1896 15.5183 7 15.5276V15.5276Z"/>
    </symbol>
    <symbol viewBox="0 0 18 17" id="check">
        <path d="M17.002 2.768L14.7579 0.998102C14.6885 0.940877 14.6026 0.900002 14.5045 0.900002C14.4064 0.900002 14.3165 0.940877 14.247 1.00219L6.08423 11.4908C6.08423 11.4908 2.87552 8.40469 2.7856 8.31476C2.69567 8.22484 2.57714 8.0736 2.39728 8.0736C2.21743 8.0736 2.13568 8.20031 2.04167 8.29433C1.97218 8.3679 0.827676 9.56963 0.263599 10.1664C0.230898 10.2032 0.210461 10.2236 0.181848 10.2523C0.132798 10.3217 0.100098 10.3994 0.100098 10.4852C0.100098 10.5752 0.132798 10.6487 0.181848 10.7182L0.296299 10.8245C0.296299 10.8245 5.99022 16.2936 6.08423 16.3876C6.17824 16.4816 6.29269 16.6002 6.46028 16.6002C6.62378 16.6002 6.75867 16.4244 6.83633 16.3467L17.0183 3.26668C17.0674 3.19719 17.1001 3.11953 17.1001 3.0296C17.1001 2.92741 17.0592 2.84157 17.002 2.768Z"/>
    </symbol>
</svg>
